<svg width="1521" height="322" viewBox="0 0 1521 322" fill="none" xmlns="http://www.w3.org/2000/svg">
<path d="M87.0862 290.431V278.014H93.2945C96.4872 278.014 99.3466 277.504 101.878 276.472C104.42 275.431 106.399 273.504 107.815 270.681C109.232 267.863 109.94 263.821 109.94 258.556V120.035C109.94 114.775 109.18 110.827 107.67 108.202C106.17 105.566 104.097 103.78 101.461 102.847C98.8362 101.905 95.8258 101.431 92.4403 101.431H87.0862V89.0142H163.815C180.925 89.0142 195.591 92.8683 207.815 100.577C220.034 108.285 229.388 119.571 235.878 134.431C242.378 149.295 245.628 167.441 245.628 188.868C245.628 209.368 242.571 227.238 236.461 242.472C230.347 257.712 221.222 269.514 209.086 277.889C196.961 286.254 181.867 290.431 163.815 290.431H87.0862ZM158.17 275.472C170.211 275.472 180.274 272.139 188.357 265.472C196.44 258.795 202.503 249.014 206.545 236.139C210.586 223.254 212.607 207.493 212.607 188.868C212.607 170.259 210.586 154.655 206.545 142.056C202.503 129.446 196.44 119.9 188.357 113.41C180.274 106.926 170.305 103.681 158.461 103.681H140.399V275.472H158.17Z" fill="#BFA472"/>
<path d="M-0.00976562 205.312V192.896H5.9069C9.47461 192.896 12.4798 192.385 14.9277 191.354C17.3704 190.312 19.2923 188.385 20.6986 185.562C22.1152 182.744 22.8236 178.703 22.8236 173.437V34.9372C22.8236 29.4788 22.0215 25.4372 20.4277 22.8122C18.8288 20.1768 16.709 18.432 14.0736 17.583C11.4486 16.7393 8.62565 16.3122 5.61523 16.3122H-0.00976562V3.89551H69.0944C90.7194 3.89551 107.032 7.80176 118.032 15.6038C129.032 23.4111 134.532 35.9684 134.532 53.2705C134.532 61.5518 133.074 68.6559 130.157 74.583C127.24 80.4997 123.334 85.3434 118.449 89.1038C113.558 92.8538 108.204 95.7653 102.386 97.833V99.2497C110.271 100.573 117.136 103.349 122.969 107.583C128.803 111.807 133.407 117.494 136.782 124.646C140.167 131.786 141.865 140.432 141.865 150.583C141.865 169.015 136.454 182.744 125.636 191.771C114.829 200.802 98.3288 205.312 76.1361 205.312H-0.00976562ZM74.1777 190.646C86.5788 190.646 95.5527 187.593 101.094 181.479C106.646 175.369 109.428 164.791 109.428 149.75C109.428 140.156 108.292 132.208 106.032 125.916C103.782 119.614 100.115 114.911 95.0319 111.812C89.959 108.703 83.0996 107.146 74.4486 107.146H53.0111V190.646H74.1777ZM67.6777 92.4788C76.3288 92.4788 83.1882 91.1195 88.2611 88.3955C93.3444 85.6611 97.0111 81.5205 99.2611 75.9788C101.521 70.4268 102.657 63.3278 102.657 54.6872C102.657 40.9528 99.8757 31.4997 94.3236 26.333C88.7819 21.1663 79.8079 18.583 67.4069 18.583H53.0111V92.4788H67.6777Z" fill="#3F6490"/>
<path d="M330.248 292.59C322.414 292.59 315.857 290.584 310.581 286.569C305.3 282.558 301.31 276.959 298.602 269.777C295.904 262.584 294.56 254.152 294.56 244.486C294.56 234.892 295.956 226.522 298.748 219.381C301.539 212.23 305.675 206.652 311.164 202.652C316.649 198.642 323.445 196.631 331.56 196.631C336.878 196.631 341.32 197.308 344.893 198.652C348.461 200.001 351.164 201.814 352.998 204.09C354.831 206.355 355.748 208.834 355.748 211.527C355.748 214.319 354.716 216.569 352.664 218.277C350.623 219.975 347.857 220.819 344.373 220.819C344.373 218.027 343.935 215.329 343.06 212.715C342.185 210.09 340.768 207.954 338.81 206.298C336.852 204.647 334.128 203.819 330.643 203.819C325.669 203.819 321.633 205.433 318.539 208.652C315.456 211.876 313.211 216.543 311.81 222.652C310.419 228.751 309.727 236.027 309.727 244.486C309.727 252.85 310.508 260.017 312.081 265.986C313.649 271.959 316.107 276.517 319.456 279.652C322.815 282.777 327.195 284.34 332.602 284.34C336.352 284.34 339.529 283.777 342.143 282.652C344.768 281.517 346.987 280.038 348.81 278.215C350.643 276.381 352.211 274.418 353.518 272.319C354.128 272.767 354.607 273.444 354.956 274.361C355.3 275.267 355.477 276.246 355.477 277.298C355.477 278.871 354.998 280.548 354.039 282.34C353.081 284.121 351.623 285.772 349.664 287.298C347.706 288.814 345.133 290.079 341.956 291.09C338.774 292.09 334.873 292.59 330.248 292.59Z" fill="#BFA472"/>
<path d="M382.555 292.59C379.315 292.59 376.394 291.824 373.784 290.298C371.17 288.772 369.102 286.465 367.576 283.382C366.045 280.288 365.284 276.335 365.284 271.527C365.284 264.559 367.373 259.418 371.555 256.111C375.748 252.809 382.118 250.975 390.659 250.611L399.93 250.236V242.507C399.93 239.204 399.685 236.376 399.201 234.027C398.727 231.668 397.836 229.835 396.534 228.527C395.227 227.225 393.222 226.569 390.513 226.569C388.081 226.569 386.185 227.163 384.826 228.34C383.477 229.507 382.56 231.163 382.076 233.298C381.602 235.439 381.368 237.944 381.368 240.819C377.534 240.819 374.68 240.147 372.805 238.798C370.93 237.439 369.993 235.371 369.993 232.59C369.993 229.704 370.93 227.329 372.805 225.465C374.68 223.59 377.227 222.173 380.451 221.215C383.67 220.257 387.331 219.777 391.43 219.777C398.664 219.777 404.107 221.501 407.763 224.944C411.43 228.376 413.263 234.189 413.263 242.382V276.111C413.263 278.559 413.498 280.454 413.972 281.798C414.456 283.147 415.201 284.105 416.201 284.673C417.211 285.246 418.586 285.527 420.326 285.527H420.597V291.277H402.93L400.972 280.423H400.055C398.482 282.788 396.935 284.902 395.409 286.777C393.894 288.642 392.149 290.079 390.18 291.09C388.222 292.09 385.68 292.59 382.555 292.59ZM386.868 285.007C389.644 285.007 391.993 284.204 393.909 282.59C395.836 280.98 397.347 278.757 398.43 275.923C399.513 273.09 400.055 269.882 400.055 266.298V255.84L393.784 256.236C390.128 256.418 387.211 257.142 385.034 258.402C382.852 259.668 381.305 261.454 380.388 263.757C379.472 266.064 379.013 268.918 379.013 272.319C379.013 274.934 379.295 277.194 379.868 279.111C380.435 281.027 381.305 282.496 382.472 283.507C383.649 284.507 385.118 285.007 386.868 285.007Z" fill="#BFA472"/>
<path d="M449.612 292.59C445.247 292.59 441.518 292.069 438.424 291.027C435.341 289.975 433.034 288.402 431.508 286.319C429.976 284.225 429.216 281.694 429.216 278.736C429.216 276.559 429.622 274.814 430.445 273.507C431.279 272.189 432.325 271.272 433.591 270.757C434.851 270.23 436.185 269.965 437.591 269.965C437.591 274.757 438.591 278.663 440.591 281.673C442.591 284.673 445.726 286.173 450.008 286.173C453.924 286.173 456.841 285.152 458.758 283.111C460.674 281.059 461.633 278.335 461.633 274.944C461.633 272.85 461.237 271.085 460.445 269.652C459.664 268.21 458.32 266.814 456.404 265.465C454.487 264.105 451.872 262.642 448.57 261.069C444.388 259.069 440.966 257.09 438.299 255.132C435.643 253.173 433.685 250.913 432.424 248.34C431.159 245.772 430.529 242.611 430.529 238.861C430.529 232.668 432.529 227.96 436.529 224.736C440.539 221.517 445.768 219.902 452.216 219.902C456.31 219.902 459.685 220.475 462.341 221.611C465.008 222.736 466.992 224.236 468.299 226.111C469.601 227.986 470.258 230.017 470.258 232.194C470.258 234.543 469.534 236.418 468.091 237.819C466.659 239.21 464.508 239.902 461.633 239.902C461.633 235.46 460.695 232.064 458.82 229.715C456.945 227.355 454.351 226.173 451.049 226.173C447.825 226.173 445.383 227.069 443.716 228.861C442.06 230.642 441.237 233.017 441.237 235.986C441.237 239.293 442.258 241.861 444.299 243.694C446.351 245.527 449.909 247.621 454.966 249.965C458.893 251.798 462.143 253.673 464.716 255.59C467.284 257.507 469.221 259.772 470.529 262.382C471.831 264.996 472.487 268.173 472.487 271.923C472.487 278.382 470.476 283.444 466.466 287.111C462.466 290.767 456.846 292.59 449.612 292.59Z" fill="#BFA472"/>
<path d="M509.887 292.59C501.08 292.59 494.325 289.454 489.616 283.173C484.908 276.897 482.554 268.09 482.554 256.757C482.554 244.48 484.835 235.251 489.408 229.069C493.991 222.876 500.418 219.777 508.7 219.777C516.46 219.777 522.517 222.46 526.866 227.819C531.226 233.168 533.408 241.027 533.408 251.402V257.027H496.158C496.325 266.527 497.804 273.501 500.595 277.944C503.387 282.392 507.439 284.611 512.762 284.611C516.595 284.611 519.793 283.59 522.366 281.548C524.934 279.496 526.871 277.121 528.179 274.423C528.97 274.772 529.663 275.314 530.262 276.048C530.871 276.788 531.179 277.767 531.179 278.986C531.179 280.902 530.434 282.913 528.95 285.007C527.476 287.09 525.168 288.876 522.033 290.361C518.892 291.845 514.845 292.59 509.887 292.59ZM519.95 250.09C519.851 243.038 518.976 237.397 517.325 233.173C515.668 228.939 512.887 226.819 508.97 226.819C505.038 226.819 502.002 228.829 499.866 232.84C497.741 236.855 496.585 242.605 496.408 250.09H519.95Z" fill="#BFA472"/>
<path d="M611.189 292.59C603.356 292.59 596.799 290.584 591.523 286.569C586.241 282.558 582.252 276.959 579.543 269.777C576.845 262.584 575.502 254.152 575.502 244.486C575.502 234.892 576.898 226.522 579.689 219.381C582.481 212.23 586.616 206.652 592.106 202.652C597.59 198.642 604.387 196.631 612.502 196.631C617.819 196.631 622.262 197.308 625.835 198.652C629.403 200.001 632.106 201.814 633.939 204.09C635.773 206.355 636.689 208.834 636.689 211.527C636.689 214.319 635.658 216.569 633.606 218.277C631.564 219.975 628.799 220.819 625.314 220.819C625.314 218.027 624.877 215.329 624.002 212.715C623.127 210.09 621.71 207.954 619.752 206.298C617.793 204.647 615.069 203.819 611.585 203.819C606.611 203.819 602.575 205.433 599.481 208.652C596.398 211.876 594.153 216.543 592.752 222.652C591.361 228.751 590.668 236.027 590.668 244.486C590.668 252.85 591.45 260.017 593.023 265.986C594.59 271.959 597.049 276.517 600.398 279.652C603.757 282.777 608.137 284.34 613.543 284.34C617.293 284.34 620.47 283.777 623.085 282.652C625.71 281.517 627.929 280.038 629.752 278.215C631.585 276.381 633.153 274.418 634.46 272.319C635.069 272.767 635.549 273.444 635.898 274.361C636.241 275.267 636.418 276.246 636.418 277.298C636.418 278.871 635.939 280.548 634.981 282.34C634.023 284.121 632.564 285.772 630.606 287.298C628.648 288.814 626.075 290.079 622.898 291.09C619.715 292.09 615.814 292.59 611.189 292.59Z" fill="#BFA472"/>
<path d="M642.434 291.277V285.527H644.017C645.668 285.527 647.148 285.293 648.455 284.819C649.757 284.334 650.757 283.418 651.455 282.069C652.148 280.709 652.497 278.683 652.497 275.985V206.298C652.497 203.772 652.08 201.902 651.247 200.694C650.424 199.475 649.34 198.668 647.997 198.277C646.648 197.876 645.273 197.673 643.872 197.673H642.434V191.923H665.976V275.985C665.976 278.683 666.32 280.709 667.017 282.069C667.71 283.418 668.731 284.334 670.08 284.819C671.439 285.293 672.945 285.527 674.601 285.527H675.913V291.277H642.434Z" fill="#BFA472"/>
<path d="M700.232 292.59C696.993 292.59 694.071 291.824 691.461 290.298C688.847 288.772 686.779 286.465 685.253 283.382C683.722 280.288 682.961 276.335 682.961 271.527C682.961 264.559 685.05 259.418 689.232 256.111C693.425 252.809 699.795 250.975 708.336 250.611L717.607 250.236V242.507C717.607 239.204 717.362 236.376 716.878 234.027C716.404 231.668 715.514 229.835 714.211 228.527C712.904 227.225 710.899 226.569 708.191 226.569C705.758 226.569 703.862 227.163 702.503 228.34C701.154 229.507 700.237 231.163 699.753 233.298C699.279 235.439 699.045 237.944 699.045 240.819C695.211 240.819 692.357 240.147 690.482 238.798C688.607 237.439 687.67 235.371 687.67 232.59C687.67 229.704 688.607 227.329 690.482 225.465C692.357 223.59 694.904 222.173 698.128 221.215C701.347 220.257 705.008 219.777 709.107 219.777C716.342 219.777 721.784 221.501 725.441 224.944C729.107 228.376 730.941 234.189 730.941 242.382V276.111C730.941 278.559 731.175 280.454 731.649 281.798C732.133 283.147 732.878 284.105 733.878 284.673C734.889 285.246 736.264 285.527 738.003 285.527H738.274V291.277H720.607L718.649 280.423H717.732C716.159 282.788 714.612 284.902 713.086 286.777C711.571 288.642 709.826 290.079 707.857 291.09C705.899 292.09 703.357 292.59 700.232 292.59ZM704.545 285.007C707.321 285.007 709.67 284.204 711.586 282.59C713.514 280.98 715.024 278.757 716.107 275.923C717.191 273.09 717.732 269.882 717.732 266.298V255.84L711.461 256.236C707.805 256.418 704.889 257.142 702.711 258.402C700.529 259.668 698.982 261.454 698.066 263.757C697.149 266.064 696.691 268.918 696.691 272.319C696.691 274.934 696.972 277.194 697.545 279.111C698.112 281.027 698.982 282.496 700.149 283.507C701.326 284.507 702.795 285.007 704.545 285.007Z" fill="#BFA472"/>
<path d="M745.581 291.277V285.527H745.977C747.727 285.527 749.253 285.314 750.56 284.882C751.862 284.439 752.904 283.543 753.685 282.194C754.477 280.85 754.872 278.819 754.872 276.111V235.84C754.872 233.23 754.497 231.293 753.747 230.027C753.008 228.767 751.987 227.939 750.685 227.548C749.378 227.163 747.899 226.965 746.247 226.965H745.852V221.215H765.581L767.56 234.798H768.081C769.122 231.923 770.315 229.355 771.664 227.09C773.008 224.829 774.732 223.064 776.831 221.798C778.925 220.538 781.497 219.902 784.539 219.902C788.55 219.902 791.497 220.819 793.372 222.652C795.247 224.475 796.185 226.913 796.185 229.965C796.185 232.923 795.195 235.257 793.227 236.965C791.268 238.663 788.289 239.507 784.289 239.507C784.289 237.064 784.112 235.085 783.768 233.569C783.419 232.043 782.852 230.913 782.06 230.173C781.279 229.423 780.149 229.048 778.664 229.048C776.914 229.048 775.383 229.882 774.081 231.548C772.774 233.204 771.685 235.355 770.81 238.007C769.945 240.663 769.315 243.538 768.914 246.632C768.524 249.73 768.331 252.673 768.331 255.465V276.757C768.331 279.288 768.716 281.184 769.497 282.444C770.289 283.71 771.315 284.543 772.581 284.944C773.841 285.335 775.258 285.527 776.831 285.527H779.977V291.277H745.581Z" fill="#BFA472"/>
<path d="M800.109 291.277V285.527H801.547C803.281 285.527 804.781 285.313 806.047 284.881C807.307 284.438 808.328 283.563 809.109 282.256C809.901 280.954 810.297 279.037 810.297 276.506V235.985C810.297 233.459 809.922 231.543 809.172 230.235C808.432 228.918 807.453 228.043 806.234 227.61C805.026 227.183 803.594 226.965 801.943 226.965H800.755V221.215H823.63V275.985C823.63 278.683 823.974 280.709 824.672 282.069C825.38 283.418 826.406 284.334 827.755 284.819C829.099 285.293 830.599 285.527 832.255 285.527H833.693V291.277H800.109ZM816.443 208.006C814.177 208.006 812.323 207.397 810.88 206.173C809.448 204.954 808.734 202.902 808.734 200.027C808.734 197.069 809.448 195.001 810.88 193.819C812.323 192.642 814.177 192.048 816.443 192.048C818.62 192.048 820.474 192.642 822.005 193.819C823.531 195.001 824.297 197.069 824.297 200.027C824.297 202.902 823.531 204.954 822.005 206.173C820.474 207.397 818.62 208.006 816.443 208.006Z" fill="#BFA472"/>
<path d="M862.587 292.59C857.098 292.59 852.983 291.09 850.233 288.09C847.493 285.079 846.129 279.777 846.129 272.194V228.131H837.629V223.298C839.712 223.038 841.577 222.475 843.233 221.611C844.9 220.736 846.296 219.6 847.421 218.194C848.556 216.892 849.535 215.236 850.358 213.236C851.191 211.236 851.868 208.538 852.4 205.131H859.462V221.215H873.962V228.131H859.462V272.069C859.462 276.517 860.092 279.767 861.358 281.819C862.618 283.861 864.598 284.881 867.296 284.881C868.78 284.881 870.155 284.772 871.421 284.548C872.681 284.329 873.926 284.084 875.15 283.819V290.236C873.926 290.751 872.223 291.272 870.046 291.798C867.863 292.324 865.379 292.59 862.587 292.59Z" fill="#BFA472"/>
<path d="M881.418 315.59C885.168 315.59 888.387 315.017 891.084 313.882C893.793 312.757 896.084 311.142 897.959 309.048C899.834 306.965 901.444 304.454 902.793 301.527C904.137 298.611 905.334 295.283 906.376 291.548L886.001 233.757C885.387 231.84 884.756 230.402 884.105 229.444C883.449 228.486 882.689 227.835 881.814 227.486C880.939 227.142 879.803 226.965 878.418 226.965H877.897V221.215H907.043V226.965H906.647C904.116 226.965 902.355 227.402 901.355 228.277C900.355 229.142 899.855 230.314 899.855 231.798C899.855 232.757 900.006 233.85 900.314 235.069C900.616 236.293 900.986 237.689 901.418 239.257L908.48 260.694C909.355 263.225 910.116 265.642 910.772 267.944C911.423 270.251 911.986 272.392 912.459 274.361C912.944 276.319 913.272 277.996 913.439 279.382C913.881 277.038 914.428 274.621 915.084 272.132C915.736 269.647 916.449 267.048 917.23 264.34L924.293 238.861C924.736 237.725 925.064 236.543 925.272 235.319C925.491 234.1 925.605 232.965 925.605 231.923C925.605 230.09 925.032 228.829 923.897 228.132C922.772 227.439 921.027 227.048 918.668 226.965H918.293V221.215H941.689V226.965H941.418C940.027 226.965 938.824 227.21 937.814 227.694C936.814 228.168 935.923 229.079 935.147 230.423C934.366 231.772 933.543 233.84 932.668 236.632L915.668 290.882C913.751 297.241 911.918 302.428 910.168 306.444C908.428 310.454 906.449 313.595 904.23 315.861C902.006 318.121 899.194 319.715 895.793 320.632C892.387 321.548 888.074 322.007 882.855 322.007H881.418V315.59Z" fill="#BFA472"/>
<path d="M994.918 292.59C991.679 292.59 988.757 291.824 986.147 290.298C983.533 288.772 981.465 286.465 979.939 283.382C978.408 280.288 977.647 276.335 977.647 271.527C977.647 264.559 979.736 259.418 983.918 256.111C988.111 252.809 994.481 250.975 1003.02 250.611L1012.29 250.236V242.507C1012.29 239.204 1012.05 236.376 1011.56 234.027C1011.09 231.668 1010.2 229.835 1008.9 228.527C1007.59 227.225 1005.58 226.569 1002.88 226.569C1000.44 226.569 998.549 227.163 997.189 228.34C995.84 229.507 994.924 231.163 994.439 233.298C993.965 235.439 993.731 237.944 993.731 240.819C989.897 240.819 987.043 240.147 985.168 238.798C983.293 237.439 982.356 235.371 982.356 232.59C982.356 229.704 983.293 227.329 985.168 225.465C987.043 223.59 989.59 222.173 992.814 221.215C996.033 220.257 999.694 219.777 1003.79 219.777C1011.03 219.777 1016.47 221.501 1020.13 224.944C1023.79 228.376 1025.63 234.189 1025.63 242.382V276.111C1025.63 278.559 1025.86 280.454 1026.33 281.798C1026.82 283.147 1027.56 284.105 1028.56 284.673C1029.57 285.246 1030.95 285.527 1032.69 285.527H1032.96V291.277H1015.29L1013.33 280.423H1012.42C1010.85 282.788 1009.3 284.902 1007.77 286.777C1006.26 288.642 1004.51 290.079 1002.54 291.09C1000.58 292.09 998.043 292.59 994.918 292.59ZM999.231 285.007C1002.01 285.007 1004.36 284.204 1006.27 282.59C1008.2 280.98 1009.71 278.757 1010.79 275.923C1011.88 273.09 1012.42 269.882 1012.42 266.298V255.84L1006.15 256.236C1002.49 256.418 999.575 257.142 997.397 258.402C995.215 259.668 993.668 261.454 992.752 263.757C991.835 266.064 991.377 268.918 991.377 272.319C991.377 274.934 991.658 277.194 992.231 279.111C992.799 281.027 993.668 282.496 994.835 283.507C996.012 284.507 997.481 285.007 999.231 285.007Z" fill="#BFA472"/>
<path d="M1040.02 291.277V285.527H1040.79C1042.54 285.527 1044.06 285.314 1045.37 284.882C1046.67 284.439 1047.71 283.543 1048.5 282.194C1049.29 280.85 1049.68 278.861 1049.68 276.236V235.715C1049.68 233.189 1049.31 231.293 1048.56 230.027C1047.82 228.767 1046.82 227.939 1045.56 227.548C1044.29 227.163 1042.83 226.965 1041.18 226.965H1040.54V221.215H1061.06L1062.62 231.527H1063.14C1065.06 227.267 1067.41 224.246 1070.2 222.465C1073 220.673 1076.44 219.777 1080.54 219.777C1086.46 219.777 1091.04 221.829 1094.27 225.923C1097.49 230.007 1099.1 236.496 1099.1 245.382V276.111C1099.1 278.819 1099.42 280.85 1100.08 282.194C1100.73 283.543 1101.67 284.439 1102.89 284.882C1104.11 285.314 1105.51 285.527 1107.08 285.527H1107.72V291.277H1085.77V246.444C1085.77 240.861 1085 236.48 1083.47 233.298C1081.94 230.121 1079.22 228.527 1075.31 228.527C1072.25 228.527 1069.81 229.538 1067.97 231.548C1066.15 233.548 1064.87 236.163 1064.12 239.382C1063.38 242.605 1063.02 246.048 1063.02 249.715V276.757C1063.02 279.382 1063.36 281.309 1064.06 282.527C1064.77 283.736 1065.77 284.543 1067.08 284.944C1068.38 285.335 1069.82 285.527 1071.39 285.527H1072.04V291.277H1040.02Z" fill="#BFA472"/>
<path d="M1139.11 292.59C1134.22 292.59 1130.1 291.324 1126.74 288.798C1123.39 286.272 1120.82 282.329 1119.03 276.965C1117.25 271.605 1116.36 264.746 1116.36 256.381C1116.36 247.923 1117.25 241.017 1119.03 235.652C1120.82 230.293 1123.41 226.329 1126.82 223.756C1130.22 221.188 1134.36 219.902 1139.24 219.902C1143.6 219.902 1147.08 220.933 1149.7 222.985C1152.31 225.027 1154.39 227.704 1155.97 231.006H1156.63C1156.45 228.923 1156.34 226.662 1156.3 224.215C1156.26 221.772 1156.24 219.334 1156.24 216.902V206.444C1156.24 203.819 1155.8 201.902 1154.93 200.694C1154.05 199.475 1152.94 198.668 1151.59 198.277C1150.24 197.876 1148.74 197.673 1147.07 197.673H1146.18V191.923H1169.57V276.235C1169.57 278.767 1169.94 280.73 1170.68 282.131C1171.41 283.522 1172.45 284.438 1173.8 284.881C1175.16 285.313 1176.66 285.527 1178.32 285.527H1179.36V291.277H1158.84L1157.01 279.777H1156.63C1154.88 283.694 1152.63 286.813 1149.88 289.131C1147.14 291.433 1143.56 292.59 1139.11 292.59ZM1142.51 284.61C1147.56 284.61 1151.11 282.131 1153.15 277.173C1155.21 272.204 1156.24 265.272 1156.24 256.381C1156.24 247.131 1155.25 240.048 1153.28 235.131C1151.32 230.204 1147.73 227.735 1142.51 227.735C1139.53 227.735 1137.13 228.85 1135.3 231.069C1133.48 233.293 1132.15 236.543 1131.32 240.819C1130.5 245.084 1130.09 250.313 1130.09 256.506C1130.09 265.923 1131.05 272.965 1132.97 277.631C1134.88 282.287 1138.06 284.61 1142.51 284.61Z" fill="#BFA472"/>
<path d="M1221.47 210.486C1220.93 208.652 1220.32 207.256 1219.63 206.298C1218.93 205.34 1218.15 204.668 1217.28 204.277C1216.41 203.892 1215.28 203.694 1213.88 203.694H1211.92V197.944H1245.01V203.694H1241.99C1239.99 203.694 1238.49 204.111 1237.49 204.944C1236.49 205.767 1235.99 206.959 1235.99 208.527C1235.99 209.142 1236.03 209.793 1236.11 210.486C1236.19 211.183 1236.35 211.881 1236.57 212.59C1236.79 213.288 1236.99 214.022 1237.15 214.798L1248.65 256.902C1249.26 259.251 1249.85 261.558 1250.42 263.819C1250.99 266.084 1251.49 268.225 1251.92 270.236C1252.37 272.236 1252.76 274.236 1253.11 276.236C1253.54 274.319 1253.97 272.361 1254.4 270.361C1254.85 268.361 1255.37 266.251 1255.99 264.027C1256.6 261.808 1257.25 259.433 1257.94 256.902L1269.57 215.84C1269.83 214.98 1270.07 214.111 1270.28 213.236C1270.5 212.361 1270.67 211.538 1270.8 210.756C1270.93 209.965 1271.01 209.267 1271.01 208.652C1271.01 206.918 1270.46 205.663 1269.36 204.881C1268.28 204.09 1266.65 203.694 1264.49 203.694H1261.22V197.944H1288.8V203.694H1286.57C1285.08 203.694 1283.86 203.959 1282.9 204.486C1281.94 205.001 1281.1 205.959 1280.36 207.361C1279.62 208.751 1278.86 210.881 1278.07 213.756L1255.47 291.277H1244.86L1221.47 210.486Z" fill="#BFA472"/>
<path d="M1311.42 292.59C1308.18 292.59 1305.26 291.824 1302.65 290.298C1300.03 288.772 1297.97 286.465 1296.44 283.382C1294.91 280.288 1294.15 276.335 1294.15 271.527C1294.15 264.559 1296.24 259.418 1300.42 256.111C1304.61 252.809 1310.98 250.975 1319.52 250.611L1328.79 250.236V242.507C1328.79 239.204 1328.55 236.376 1328.06 234.027C1327.59 231.668 1326.7 229.835 1325.4 228.527C1324.09 227.225 1322.09 226.569 1319.38 226.569C1316.94 226.569 1315.05 227.163 1313.69 228.34C1312.34 229.507 1311.42 231.163 1310.94 233.298C1310.47 235.439 1310.23 237.944 1310.23 240.819C1306.4 240.819 1303.54 240.147 1301.67 238.798C1299.79 237.439 1298.86 235.371 1298.86 232.59C1298.86 229.704 1299.79 227.329 1301.67 225.465C1303.54 223.59 1306.09 222.173 1309.31 221.215C1312.53 220.257 1316.19 219.777 1320.29 219.777C1327.53 219.777 1332.97 221.501 1336.63 224.944C1340.29 228.376 1342.13 234.189 1342.13 242.382V276.111C1342.13 278.559 1342.36 280.454 1342.84 281.798C1343.32 283.147 1344.06 284.105 1345.06 284.673C1346.08 285.246 1347.45 285.527 1349.19 285.527H1349.46V291.277H1331.79L1329.84 280.423H1328.92C1327.35 282.788 1325.8 284.902 1324.27 286.777C1322.76 288.642 1321.01 290.079 1319.04 291.09C1317.09 292.09 1314.54 292.59 1311.42 292.59ZM1315.73 285.007C1318.51 285.007 1320.86 284.204 1322.77 282.59C1324.7 280.98 1326.21 278.757 1327.29 275.923C1328.38 273.09 1328.92 269.882 1328.92 266.298V255.84L1322.65 256.236C1318.99 256.418 1316.08 257.142 1313.9 258.402C1311.72 259.668 1310.17 261.454 1309.25 263.757C1308.34 266.064 1307.88 268.918 1307.88 272.319C1307.88 274.934 1308.16 277.194 1308.73 279.111C1309.3 281.027 1310.17 282.496 1311.34 283.507C1312.51 284.507 1313.98 285.007 1315.73 285.007Z" fill="#BFA472"/>
<path d="M1355.33 291.277V285.527H1356.91C1358.56 285.527 1360.04 285.293 1361.35 284.819C1362.65 284.334 1363.65 283.418 1364.35 282.069C1365.04 280.709 1365.39 278.683 1365.39 275.985V206.298C1365.39 203.772 1364.98 201.902 1364.14 200.694C1363.32 199.475 1362.24 198.668 1360.89 198.277C1359.54 197.876 1358.17 197.673 1356.77 197.673H1355.33V191.923H1378.87V275.985C1378.87 278.683 1379.22 280.709 1379.91 282.069C1380.61 283.418 1381.63 284.334 1382.98 284.819C1384.34 285.293 1385.84 285.527 1387.5 285.527H1388.81V291.277H1355.33Z" fill="#BFA472"/>
<path d="M1420.71 292.59C1414.43 292.59 1409.72 290.543 1406.59 286.444C1403.45 282.35 1401.88 275.855 1401.88 266.965V235.84C1401.88 233.23 1401.55 231.293 1400.9 230.027C1400.24 228.767 1399.28 227.939 1398.02 227.548C1396.76 227.163 1395.25 226.965 1393.5 226.965H1393.11V221.215H1415.34V265.777C1415.34 269.71 1415.62 273.027 1416.19 275.736C1416.76 278.434 1417.8 280.454 1419.32 281.798C1420.84 283.147 1422.96 283.819 1425.67 283.819C1428.63 283.819 1431.02 282.954 1432.86 281.215C1434.69 279.465 1436.01 277.001 1436.84 273.819C1437.67 270.642 1438.09 266.96 1438.09 262.777V236.236C1438.09 233.444 1437.74 231.397 1437.04 230.09C1436.35 228.788 1435.37 227.939 1434.11 227.548C1432.84 227.163 1431.43 226.965 1429.86 226.965H1429.46V221.215H1451.42V276.757C1451.42 279.382 1451.81 281.309 1452.59 282.527C1453.38 283.736 1454.43 284.543 1455.73 284.944C1457.03 285.335 1458.43 285.527 1459.92 285.527H1460.57V291.277H1440.71L1438.88 280.944H1438.36C1436.26 285.392 1433.75 288.444 1430.84 290.111C1427.92 291.762 1424.54 292.59 1420.71 292.59Z" fill="#BFA472"/>
<path d="M1496.53 292.59C1487.73 292.59 1480.97 289.454 1476.26 283.173C1471.56 276.897 1469.2 268.09 1469.2 256.757C1469.2 244.48 1471.48 235.251 1476.06 229.069C1480.64 222.876 1487.07 219.777 1495.35 219.777C1503.11 219.777 1509.16 222.46 1513.51 227.819C1517.87 233.168 1520.06 241.027 1520.06 251.402V257.027H1482.81C1482.97 266.527 1484.45 273.501 1487.24 277.944C1490.03 282.392 1494.09 284.611 1499.41 284.611C1503.24 284.611 1506.44 283.59 1509.01 281.548C1511.58 279.496 1513.52 277.121 1514.83 274.423C1515.62 274.772 1516.31 275.314 1516.91 276.048C1517.52 276.788 1517.83 277.767 1517.83 278.986C1517.83 280.902 1517.08 282.913 1515.6 285.007C1514.12 287.09 1511.82 288.876 1508.68 290.361C1505.54 291.845 1501.49 292.59 1496.53 292.59ZM1506.6 250.09C1506.5 243.038 1505.62 237.397 1503.97 233.173C1502.32 228.939 1499.53 226.819 1495.62 226.819C1491.69 226.819 1488.65 228.829 1486.51 232.84C1484.39 236.855 1483.23 242.605 1483.06 250.09H1506.6Z" fill="#BFA472"/>
<path d="M294.852 170.568V160.63H299.602C302.461 160.63 304.873 160.214 306.831 159.38C308.789 158.547 310.331 157.005 311.456 154.755C312.591 152.495 313.164 149.25 313.164 145.026V34.0469C313.164 29.6719 312.518 26.4323 311.227 24.3177C309.946 22.2083 308.253 20.8125 306.143 20.1302C304.029 19.4531 301.774 19.1094 299.373 19.1094H294.852V9.17188H350.227C367.56 9.17188 380.628 12.3073 389.435 18.5677C398.253 24.8177 402.664 34.875 402.664 48.7344C402.664 55.3594 401.498 61.0469 399.164 65.7969C396.831 70.5469 393.706 74.4323 389.789 77.4427C385.873 80.4583 381.571 82.7917 376.893 84.4427V85.5677C383.227 86.625 388.727 88.8542 393.393 92.2552C398.071 95.6458 401.768 100.203 404.477 105.922C407.185 111.646 408.539 118.578 408.539 126.714C408.539 141.479 404.206 152.479 395.539 159.714C386.873 166.953 373.649 170.568 355.873 170.568H294.852ZM354.289 158.818C364.232 158.818 371.425 156.375 375.873 151.484C380.315 146.583 382.539 138.104 382.539 126.047C382.539 118.354 381.633 111.984 379.831 106.943C378.024 101.891 375.086 98.1198 371.018 95.6302C366.946 93.1458 361.446 91.901 354.518 91.901H337.331V158.818H354.289ZM349.102 80.151C356.029 80.151 361.529 79.0625 365.602 76.8802C369.67 74.6875 372.607 71.3698 374.414 66.9219C376.216 62.4792 377.123 56.7917 377.123 49.8594C377.123 38.8594 374.899 31.2917 370.456 27.151C366.008 23 358.815 20.9219 348.873 20.9219H337.331V80.151H349.102Z" fill="#3F6490"/>
<path d="M476.118 172.839C461.503 172.839 449.977 167.641 441.535 157.234C433.087 146.833 428.868 131.005 428.868 109.755C428.868 88.6615 432.936 72.9167 441.076 62.526C449.212 52.125 461.123 46.9219 476.805 46.9219C491.415 46.9219 502.899 52.125 511.264 62.526C519.623 72.9167 523.805 88.6615 523.805 109.755C523.805 131.005 519.769 146.833 511.701 157.234C503.644 167.641 491.785 172.839 476.118 172.839ZM476.576 160.63C482.451 160.63 487.118 158.708 490.576 154.859C494.045 151.016 496.535 145.328 498.035 137.797C499.545 130.255 500.305 120.911 500.305 109.755C500.305 92.8802 498.493 80.2656 494.868 71.901C491.253 63.5417 485.081 59.3594 476.347 59.3594C467.748 59.3594 461.644 63.5417 458.035 71.901C454.42 80.2656 452.618 92.8802 452.618 109.755C452.618 126.495 454.456 139.161 458.139 147.755C461.831 156.339 467.977 160.63 476.576 160.63Z" fill="#3F6490"/>
<path d="M535.33 170.568V160.63H537.143C540.309 160.63 542.981 160.255 545.164 159.505C547.341 158.745 549.445 157.271 551.476 155.088C553.518 152.896 555.747 149.917 558.164 146.151L582.58 109.318L558.164 71.3384C556.507 68.63 554.773 66.3748 552.955 64.5675C551.148 62.7498 549.341 61.4321 547.539 60.6092C545.731 59.7759 543.773 59.3592 541.664 59.3592H538.955V49.4009H592.747V59.3592H592.289C588.08 59.3592 585.252 59.9998 583.809 61.2759C582.377 62.5571 581.664 64.0988 581.664 65.9009C581.664 67.4165 582.039 68.9321 582.789 70.4425C583.549 71.9425 584.684 73.9009 586.184 76.3175L598.164 96.1925L607.893 79.0259C609.252 76.4582 610.419 74.1196 611.393 72.005C612.377 69.8957 612.872 67.8592 612.872 65.9009C612.872 63.1925 611.924 61.4321 610.039 60.6092C608.148 59.7759 605.773 59.3592 602.914 59.3592H602.018V49.4009H645.414V59.3592H643.601C641.195 59.3592 639.018 59.703 637.059 60.38C635.101 61.0467 633.132 62.4373 631.164 64.5467C629.205 66.6613 626.872 69.7498 624.164 73.8175L604.268 104.797L632.539 148.651C634.497 151.515 636.336 153.849 638.059 155.651C639.794 157.458 641.487 158.745 643.143 159.505C644.809 160.255 646.466 160.63 648.122 160.63H650.622V170.568H595.455V160.63H596.58C600.507 160.63 603.414 159.995 605.289 158.713C607.174 157.422 608.122 155.578 608.122 153.172C608.122 151.505 607.627 149.661 606.643 147.63C605.669 145.588 603.674 142.234 600.664 137.568L588.455 117.672L575.351 139.818C574.143 142.083 573.007 144.312 571.955 146.505C570.898 148.687 570.372 150.979 570.372 153.38C570.372 155.797 571.273 157.609 573.08 158.818C574.882 160.026 577.898 160.63 582.122 160.63H582.809V170.568H535.33Z" fill="#3F6490"/>
<path d="M953.49 170.568V160.63H958.449C961.016 160.63 963.313 160.214 965.344 159.38C967.386 158.547 968.969 157.005 970.094 154.755C971.23 152.495 971.803 149.25 971.803 145.026V34.0469C971.803 29.8281 971.199 26.6615 969.99 24.5469C968.782 22.4375 967.12 21.0052 965.011 20.2552C962.896 19.4948 960.49 19.1094 957.782 19.1094H953.49V9.17188H1014.97C1028.68 9.17188 1040.43 12.2656 1050.22 18.4427C1060.02 24.625 1067.52 33.6667 1072.72 45.5677C1077.91 57.474 1080.51 72.0156 1080.51 89.1927C1080.51 105.625 1078.06 119.943 1073.16 132.151C1068.27 144.349 1060.96 153.797 1051.24 160.505C1041.52 167.214 1029.43 170.568 1014.97 170.568H953.49ZM1010.45 158.589C1020.08 158.589 1028.14 155.917 1034.62 150.568C1041.1 145.224 1045.96 137.391 1049.2 127.068C1052.45 116.734 1054.07 104.109 1054.07 89.1927C1054.07 74.276 1052.45 61.7708 1049.2 51.6719C1045.96 41.5781 1041.1 33.9323 1034.62 28.7344C1028.14 23.526 1020.16 20.9219 1010.68 20.9219H996.199V158.589H1010.45Z" fill="#3F6490"/>
<path d="M1148.54 172.839C1133.93 172.839 1122.4 167.641 1113.96 157.234C1105.51 146.833 1101.29 131.005 1101.29 109.755C1101.29 88.6615 1105.36 72.9167 1113.5 62.526C1121.64 52.125 1133.55 46.9219 1149.23 46.9219C1163.84 46.9219 1175.33 52.125 1183.69 62.526C1192.05 72.9167 1196.23 88.6615 1196.23 109.755C1196.23 131.005 1192.19 146.833 1184.13 157.234C1176.07 167.641 1164.21 172.839 1148.54 172.839ZM1149 160.63C1154.88 160.63 1159.54 158.708 1163 154.859C1166.47 151.016 1168.96 145.328 1170.46 137.797C1171.97 130.255 1172.73 120.911 1172.73 109.755C1172.73 92.8802 1170.92 80.2656 1167.29 71.901C1163.68 63.5417 1157.51 59.3594 1148.77 59.3594C1140.17 59.3594 1134.07 63.5417 1130.46 71.901C1126.85 80.2656 1125.04 92.8802 1125.04 109.755C1125.04 126.495 1126.88 139.161 1130.56 147.755C1134.26 156.339 1140.4 160.63 1149 160.63Z" fill="#3F6490"/>
<path d="M1207.76 170.568V160.63H1209.57C1212.74 160.63 1215.41 160.255 1217.59 159.505C1219.77 158.745 1221.87 157.271 1223.9 155.088C1225.94 152.896 1228.17 149.917 1230.59 146.151L1255.01 109.318L1230.59 71.3384C1228.93 68.63 1227.2 66.3748 1225.38 64.5675C1223.57 62.7498 1221.77 61.4321 1219.96 60.6092C1218.16 59.7759 1216.2 59.3592 1214.09 59.3592H1211.38V49.4009H1265.17V59.3592H1264.71C1260.51 59.3592 1257.68 59.9998 1256.24 61.2759C1254.8 62.5571 1254.09 64.0988 1254.09 65.9009C1254.09 67.4165 1254.46 68.9321 1255.21 70.4425C1255.98 71.9425 1257.11 73.9009 1258.61 76.3175L1270.59 96.1925L1280.32 79.0259C1281.68 76.4582 1282.84 74.1196 1283.82 72.005C1284.8 69.8957 1285.3 67.8592 1285.3 65.9009C1285.3 63.1925 1284.35 61.4321 1282.46 60.6092C1280.57 59.7759 1278.2 59.3592 1275.34 59.3592H1274.44V49.4009H1317.84V59.3592H1316.03C1313.62 59.3592 1311.44 59.703 1309.49 60.38C1307.53 61.0467 1305.56 62.4373 1303.59 64.5467C1301.63 66.6613 1299.3 69.7498 1296.59 73.8175L1276.69 104.797L1304.96 148.651C1306.92 151.515 1308.76 153.849 1310.49 155.651C1312.22 157.458 1313.91 158.745 1315.57 159.505C1317.24 160.255 1318.89 160.63 1320.55 160.63H1323.05V170.568H1267.88V160.63H1269.01C1272.93 160.63 1275.84 159.995 1277.71 158.713C1279.6 157.422 1280.55 155.578 1280.55 153.172C1280.55 151.505 1280.05 149.661 1279.07 147.63C1278.09 145.588 1276.1 142.234 1273.09 137.568L1260.88 117.672L1247.78 139.818C1246.57 142.083 1245.43 144.312 1244.38 146.505C1243.32 148.687 1242.8 150.979 1242.8 153.38C1242.8 155.797 1243.7 157.609 1245.51 158.818C1247.31 160.026 1250.32 160.63 1254.55 160.63H1255.24V170.568H1207.76Z" fill="#3F6490"/>
<path d="M753.849 166.384C740.109 166.384 729.276 161.504 721.349 151.738C713.417 141.962 709.453 127.092 709.453 107.134C709.453 87.3164 713.271 72.5247 720.911 62.7591C728.562 52.9987 739.75 48.1133 754.474 48.1133C768.208 48.1133 779 52.9987 786.849 62.7591C794.708 72.5247 798.641 87.3164 798.641 107.134C798.641 127.092 794.854 141.962 787.286 151.738C779.714 161.504 768.568 166.384 753.849 166.384ZM754.266 154.926C759.776 154.926 764.161 153.124 767.411 149.509C770.672 145.9 773.016 140.561 774.432 133.488C775.849 126.405 776.557 117.624 776.557 107.134C776.557 91.2904 774.854 79.4414 771.453 71.5924C768.063 63.7331 762.266 59.8008 754.057 59.8008C745.984 59.8008 740.25 63.7331 736.849 71.5924C733.458 79.4414 731.766 91.2904 731.766 107.134C731.766 122.858 733.495 134.754 736.953 142.822C740.422 150.895 746.193 154.926 754.266 154.926Z" fill="#3F6490"/>
<path d="M812.412 164.259V154.925H815.6C817.86 154.925 820.089 154.571 822.287 153.863C824.48 153.155 826.245 151.738 827.579 149.613C828.923 147.488 829.6 144.3 829.6 140.05V61.488H813.266V50.4463H829.6V40.2588C829.6 27.665 832.568 17.9359 838.516 11.0713C844.475 4.19629 853.183 0.758789 864.641 0.758789C871.292 0.758789 876.527 1.43587 880.35 2.77962C884.167 4.12858 886.891 5.89941 888.516 8.09212C890.152 10.29 890.975 12.8005 890.975 15.6338C890.975 18.04 890.37 20.1963 889.162 22.113C887.964 24.0192 886.126 25.54 883.641 26.6755C881.167 27.8005 878.021 28.363 874.204 28.363C874.204 25.5296 873.917 22.7744 873.35 20.0921C872.777 17.3994 871.751 15.2067 870.266 13.5088C868.777 11.8005 866.62 10.9463 863.787 10.9463C859.256 10.9463 856.037 13.2171 854.12 17.7588C852.214 22.29 851.266 29.0088 851.266 37.9255V50.4463H876.745V61.488H851.266V140.05C851.266 144.3 851.938 147.488 853.287 149.613C854.631 151.738 856.402 153.155 858.6 153.863C860.792 154.571 863.089 154.925 865.495 154.925H872.933V164.259H812.412Z" fill="#3F6490"/>
</svg>
